<?xml version="1.0" encoding="UTF-8" standalone="no"?>
<svg
   id="visual"
   viewBox="0 0 1920 2000"
   width="1920"
   height="2000"
   version="1.1"
   sodipodi:docname="LayeredWaves.svg"
   inkscape:version="1.3.2 (091e20ef0f, 2023-11-25, custom)"
   xmlns:inkscape="http://www.inkscape.org/namespaces/inkscape"
   xmlns:sodipodi="http://sodipodi.sourceforge.net/DTD/sodipodi-0.dtd"
   xmlns="http://www.w3.org/2000/svg"
   xmlns:svg="http://www.w3.org/2000/svg">
  <defs
     id="defs4" />
  <sodipodi:namedview
     id="namedview4"
     pagecolor="#505050"
     bordercolor="#eeeeee"
     borderopacity="1"
     inkscape:showpageshadow="false"
     inkscape:pageopacity="0"
     inkscape:pagecheckerboard="0"
     inkscape:deskcolor="#505050"
     inkscape:zoom="0.25"
     inkscape:cx="186"
     inkscape:cy="2422"
     inkscape:window-width="1920"
     inkscape:window-height="1055"
     inkscape:window-x="0"
     inkscape:window-y="25"
     inkscape:window-maximized="1"
     inkscape:current-layer="visual" />
  <path
     d="m 0,1724.7441 45.7,7.2 c 45.6,7.1 137,21.5 228.5,34.3 91.5,12.8 183.1,24.2 274.6,10 91.5,-14.2 182.9,-53.8 274.2,-64.3 91.3,-10.5 182.7,8.1 274,20.5 91.3,12.3 182.7,18.3 274.2,10.1 91.5,-8.1 183.1,-30.5 274.6,-40.3 91.5,-9.8 182.9,-7.2 228.5,-5.8 l 45.7,1.3 v 2941.748 H 1874.3 1645.8 1371.2 1097 823 548.8 274.2 45.7 0 Z"
     fill="#6198ff"
     id="path1"
     sodipodi:nodetypes="ccsssccsccccccccccccc" />
  <path
     d="m 0,1746.7441 45.7,11 c 45.6,11 137,33 228.5,38.2 91.5,5.1 183.1,-6.5 274.6,-18.2 91.5,-11.7 182.9,-23.3 274.2,-18 91.3,5.3 182.7,27.7 274,45.2 91.3,17.5 182.7,30.1 274.2,24.5 91.5,-5.7 183.1,-29.7 274.6,-37.5 91.5,-7.9 182.9,0.5 228.5,4.6 l 45.7,4.2 v 2838.748 H 1874.3 1645.8 1371.2 1097 823 548.8 274.2 45.7 0 Z"
     fill="#2d77ff"
     id="path2"
     sodipodi:nodetypes="cccsssccccccccccccccc" />
  <path
     d="m 0,1833.7441 45.7,-3.8 c 45.6,-3.9 137,-11.5 228.5,-10 91.5,1.5 183.1,12.1 274.6,13.5 91.5,1.3 182.9,-6.7 274.2,0.5 91.3,7.1 182.7,29.5 274,37.6 91.3,8.2 182.7,2.2 274.2,-2 91.5,-4.1 183.1,-6.5 274.6,-9.3 91.5,-2.8 182.9,-6.2 228.5,-7.8 l 45.7,-1.7 v 2788.748 H 1874.3 1645.8 1371.2 1097 823 548.8 274.2 45.7 0 Z"
     fill="#005de8"
     id="path3"
     sodipodi:nodetypes="ccsccccsccccccccccccc" />
  <path
     d="m 0,1934.7441 45.7,-4.7 c 45.6,-4.6 137,-14 228.5,-11.8 91.5,2.2 183.1,15.8 274.6,24.8 91.5,9 182.9,13.4 274.2,7.2 91.3,-6.2 182.7,-22.8 274,-27.3 91.3,-4.5 182.7,3.1 274.2,4 91.5,0.8 183.1,-5.2 274.6,-12.4 91.5,-7.1 182.9,-15.5 228.5,-19.6 l 45.7,-4.2 v 2748.748 H 1874.3 1645.8 1371.2 1097 823 548.8 274.2 45.7 0 Z"
     fill="#004cbb"
     id="path4"
     sodipodi:nodetypes="ccssssccccccccccccccc" />
</svg>
